<mxfile host="app.diagrams.net" agent="Mozilla/5.0 (Windows NT 10.0; Win64; x64) AppleWebKit/537.36 (KHTML, like Gecko) Chrome/126.0.0.0 Safari/537.36 OPR/112.0.0.0" version="24.7.14">
  <diagram name="Page-1" id="xeQZpFs543uhpDh3K7Z5">
    <mxGraphModel dx="1049" dy="576" grid="1" gridSize="10" guides="1" tooltips="1" connect="1" arrows="1" fold="1" page="1" pageScale="1" pageWidth="850" pageHeight="1100" math="0" shadow="0">
      <root>
        <mxCell id="0" />
        <mxCell id="1" parent="0" />
        <mxCell id="nziulhYaqac5u9mffXB2-12" value="PostgreSQL&lt;div&gt;Tables&lt;/div&gt;" style="shape=cylinder3;whiteSpace=wrap;html=1;boundedLbl=1;backgroundOutline=1;size=15;fillColor=#fff2cc;strokeColor=#d6b656;" parent="1" vertex="1">
          <mxGeometry x="385" y="390" width="80" height="110" as="geometry" />
        </mxCell>
        <mxCell id="nziulhYaqac5u9mffXB2-13" value="" style="rounded=1;whiteSpace=wrap;html=1;fillColor=#dae8fc;strokeColor=#6c8ebf;" parent="1" vertex="1">
          <mxGeometry x="67.5" y="200" width="125" height="130" as="geometry" />
        </mxCell>
        <mxCell id="nziulhYaqac5u9mffXB2-14" value="" style="ellipse;whiteSpace=wrap;html=1;aspect=fixed;fillColor=#d5e8d4;strokeColor=#82b366;" parent="1" vertex="1">
          <mxGeometry x="355.5" y="30" width="140" height="140" as="geometry" />
        </mxCell>
        <mxCell id="w37nVbZSuBNHNCpnNDkP-1" value="&lt;b&gt;Server&lt;/b&gt;" style="text;html=1;align=center;verticalAlign=middle;whiteSpace=wrap;rounded=0;" vertex="1" parent="1">
          <mxGeometry x="100" y="170" width="60" height="30" as="geometry" />
        </mxCell>
        <mxCell id="w37nVbZSuBNHNCpnNDkP-2" value="&lt;b&gt;Compute&lt;/b&gt;" style="text;html=1;align=center;verticalAlign=middle;whiteSpace=wrap;rounded=0;" vertex="1" parent="1">
          <mxGeometry x="395" width="60" height="30" as="geometry" />
        </mxCell>
        <mxCell id="w37nVbZSuBNHNCpnNDkP-3" value="&lt;b&gt;Database&lt;/b&gt;" style="text;html=1;align=center;verticalAlign=middle;whiteSpace=wrap;rounded=0;" vertex="1" parent="1">
          <mxGeometry x="395" y="500" width="60" height="30" as="geometry" />
        </mxCell>
        <mxCell id="w37nVbZSuBNHNCpnNDkP-4" value="Job Queuer (HTML server)" style="rounded=0;whiteSpace=wrap;html=1;fillColor=#60a917;strokeColor=#2D7600;fontColor=#ffffff;" vertex="1" parent="1">
          <mxGeometry x="378" y="60" width="95" height="30" as="geometry" />
        </mxCell>
        <mxCell id="w37nVbZSuBNHNCpnNDkP-6" value="" style="endArrow=classic;html=1;rounded=0;exitX=1;exitY=0.5;exitDx=0;exitDy=0;entryX=0;entryY=0.5;entryDx=0;entryDy=0;" edge="1" parent="1" source="nziulhYaqac5u9mffXB2-13" target="nziulhYaqac5u9mffXB2-14">
          <mxGeometry width="50" height="50" relative="1" as="geometry">
            <mxPoint x="260" y="250" as="sourcePoint" />
            <mxPoint x="310" y="200" as="targetPoint" />
          </mxGeometry>
        </mxCell>
        <mxCell id="w37nVbZSuBNHNCpnNDkP-7" value="POST job request" style="text;html=1;align=center;verticalAlign=middle;whiteSpace=wrap;rounded=0;" vertex="1" parent="1">
          <mxGeometry x="230" y="120" width="60" height="30" as="geometry" />
        </mxCell>
        <mxCell id="w37nVbZSuBNHNCpnNDkP-8" value="" style="endArrow=classic;startArrow=classic;html=1;rounded=0;exitX=0.5;exitY=0;exitDx=0;exitDy=0;exitPerimeter=0;dashed=1;" edge="1" parent="1" source="nziulhYaqac5u9mffXB2-12">
          <mxGeometry width="50" height="50" relative="1" as="geometry">
            <mxPoint x="320" y="230" as="sourcePoint" />
            <mxPoint x="425" y="170" as="targetPoint" />
          </mxGeometry>
        </mxCell>
        <mxCell id="w37nVbZSuBNHNCpnNDkP-11" value="UPDATE job status&lt;div&gt;&lt;br&gt;&lt;div&gt;SELECT model path&lt;/div&gt;&lt;/div&gt;" style="text;html=1;align=center;verticalAlign=middle;whiteSpace=wrap;rounded=0;" vertex="1" parent="1">
          <mxGeometry x="425" y="280" width="100" height="30" as="geometry" />
        </mxCell>
        <mxCell id="w37nVbZSuBNHNCpnNDkP-12" value="" style="endArrow=classic;startArrow=classic;html=1;rounded=0;exitX=1;exitY=0.5;exitDx=0;exitDy=0;entryX=0;entryY=0.5;entryDx=0;entryDy=0;entryPerimeter=0;dashed=1;" edge="1" parent="1" source="nziulhYaqac5u9mffXB2-13" target="nziulhYaqac5u9mffXB2-12">
          <mxGeometry width="50" height="50" relative="1" as="geometry">
            <mxPoint x="330" y="320" as="sourcePoint" />
            <mxPoint x="380" y="270" as="targetPoint" />
          </mxGeometry>
        </mxCell>
        <mxCell id="w37nVbZSuBNHNCpnNDkP-13" value="SELECT / UPDATE&lt;div&gt;&lt;span style=&quot;background-color: initial;&quot;&gt;models, jobs, datasets&lt;/span&gt;&lt;/div&gt;" style="text;html=1;align=center;verticalAlign=middle;whiteSpace=wrap;rounded=0;" vertex="1" parent="1">
          <mxGeometry x="205" y="380" width="110" height="50" as="geometry" />
        </mxCell>
        <mxCell id="w37nVbZSuBNHNCpnNDkP-14" value="./models/&lt;br&gt;&lt;div&gt;./datasets/&lt;/div&gt;" style="ellipse;shape=cloud;whiteSpace=wrap;html=1;fillColor=#f8cecc;strokeColor=#b85450;" vertex="1" parent="1">
          <mxGeometry x="650" y="215" width="120" height="80" as="geometry" />
        </mxCell>
        <mxCell id="w37nVbZSuBNHNCpnNDkP-15" value="&lt;b&gt;Storage (local host directory)&lt;/b&gt;" style="text;html=1;align=center;verticalAlign=middle;whiteSpace=wrap;rounded=0;" vertex="1" parent="1">
          <mxGeometry x="635" y="190" width="150" height="30" as="geometry" />
        </mxCell>
        <mxCell id="w37nVbZSuBNHNCpnNDkP-16" value="" style="endArrow=classic;startArrow=classic;html=1;rounded=0;entryX=0.5;entryY=1;entryDx=0;entryDy=0;exitX=0.55;exitY=0.95;exitDx=0;exitDy=0;exitPerimeter=0;edgeStyle=orthogonalEdgeStyle;dashed=1;dashPattern=1 4;" edge="1" parent="1" source="w37nVbZSuBNHNCpnNDkP-14" target="nziulhYaqac5u9mffXB2-13">
          <mxGeometry width="50" height="50" relative="1" as="geometry">
            <mxPoint x="100" y="440" as="sourcePoint" />
            <mxPoint x="150" y="390" as="targetPoint" />
            <Array as="points">
              <mxPoint x="716" y="560" />
              <mxPoint x="130" y="560" />
            </Array>
          </mxGeometry>
        </mxCell>
        <mxCell id="w37nVbZSuBNHNCpnNDkP-17" value="&lt;div&gt;UPDATE / RETRIEVE Model files&lt;/div&gt;&lt;div&gt;&lt;br&gt;&lt;/div&gt;&lt;div&gt;RETRIEVE datasets&lt;/div&gt;" style="text;html=1;align=center;verticalAlign=middle;whiteSpace=wrap;rounded=0;" vertex="1" parent="1">
          <mxGeometry x="505" y="70" width="145" height="50" as="geometry" />
        </mxCell>
        <mxCell id="w37nVbZSuBNHNCpnNDkP-18" style="edgeStyle=orthogonalEdgeStyle;rounded=0;orthogonalLoop=1;jettySize=auto;html=1;exitX=0.5;exitY=1;exitDx=0;exitDy=0;" edge="1" parent="1" source="nziulhYaqac5u9mffXB2-13" target="nziulhYaqac5u9mffXB2-13">
          <mxGeometry relative="1" as="geometry" />
        </mxCell>
        <mxCell id="w37nVbZSuBNHNCpnNDkP-20" value="&lt;font style=&quot;font-size: 8px;&quot;&gt;Inference Runner&lt;/font&gt;" style="ellipse;whiteSpace=wrap;html=1;aspect=fixed;fillColor=#1ba1e2;fontColor=#ffffff;strokeColor=#006EAF;" vertex="1" parent="1">
          <mxGeometry x="130" y="270" width="50" height="50" as="geometry" />
        </mxCell>
        <mxCell id="w37nVbZSuBNHNCpnNDkP-21" value="Job Runner" style="ellipse;whiteSpace=wrap;html=1;fillColor=#1ba1e2;fontColor=#ffffff;strokeColor=#006EAF;" vertex="1" parent="1">
          <mxGeometry x="380" y="100" width="90" height="45" as="geometry" />
        </mxCell>
        <mxCell id="w37nVbZSuBNHNCpnNDkP-22" value="FastAPI Endpoints" style="rounded=0;whiteSpace=wrap;html=1;fillColor=#0050ef;fontColor=#ffffff;strokeColor=#001DBC;" vertex="1" parent="1">
          <mxGeometry x="80" y="215" width="100" height="40" as="geometry" />
        </mxCell>
        <mxCell id="w37nVbZSuBNHNCpnNDkP-23" value="" style="endArrow=classic;startArrow=classic;html=1;rounded=0;entryX=0.25;entryY=1;entryDx=0;entryDy=0;exitX=0;exitY=0.5;exitDx=0;exitDy=0;edgeStyle=orthogonalEdgeStyle;" edge="1" parent="1" source="w37nVbZSuBNHNCpnNDkP-20" target="w37nVbZSuBNHNCpnNDkP-22">
          <mxGeometry width="50" height="50" relative="1" as="geometry">
            <mxPoint x="-30" y="330" as="sourcePoint" />
            <mxPoint x="20" y="280" as="targetPoint" />
            <Array as="points">
              <mxPoint x="105" y="295" />
            </Array>
          </mxGeometry>
        </mxCell>
        <mxCell id="w37nVbZSuBNHNCpnNDkP-24" value="&lt;font style=&quot;font-size: 7px;&quot;&gt;POST /inference&lt;/font&gt;" style="text;html=1;align=center;verticalAlign=middle;whiteSpace=wrap;rounded=0;" vertex="1" parent="1">
          <mxGeometry x="67.5" y="290" width="42.5" height="10" as="geometry" />
        </mxCell>
        <mxCell id="w37nVbZSuBNHNCpnNDkP-26" style="edgeStyle=orthogonalEdgeStyle;rounded=0;orthogonalLoop=1;jettySize=auto;html=1;exitX=1;exitY=0.5;exitDx=0;exitDy=0;entryX=0.07;entryY=0.4;entryDx=0;entryDy=0;entryPerimeter=0;startArrow=classic;startFill=1;dashed=1;dashPattern=1 4;" edge="1" parent="1" source="nziulhYaqac5u9mffXB2-14" target="w37nVbZSuBNHNCpnNDkP-14">
          <mxGeometry relative="1" as="geometry">
            <Array as="points">
              <mxPoint x="640" y="100" />
              <mxPoint x="640" y="247" />
            </Array>
          </mxGeometry>
        </mxCell>
        <mxCell id="w37nVbZSuBNHNCpnNDkP-27" value="&lt;div&gt;CREATE / RETRIEVE Model files&lt;/div&gt;" style="text;html=1;align=center;verticalAlign=middle;whiteSpace=wrap;rounded=0;" vertex="1" parent="1">
          <mxGeometry x="10" y="390" width="120" height="50" as="geometry" />
        </mxCell>
      </root>
    </mxGraphModel>
  </diagram>
</mxfile>
